<svg xmlns="http://www.w3.org/2000/svg" width="37" height="23" viewBox="0 0 37 23">
  <g id="Google_plus_icon" data-name="Google plus icon" transform="translate(0 -96)" opacity="0.8">
    <g id="Group_64" data-name="Group 64" transform="translate(25.3 100.6)">
      <g id="Group_63" data-name="Group 63">
        <path id="Path_289" data-name="Path 289" d="M358.7,164.4v-4h-2v4h-5v3h5v4h2v-4h5v-3Z" transform="translate(-352 -160)" fill="inherit"/>
      </g>
    </g>
    <g id="Group_66" data-name="Group 66" transform="translate(0 96)">
      <g id="Group_65" data-name="Group 65">
        <path id="Path_290" data-name="Path 290" d="M12,105v5h6c-.95,2.677-3,4-6,4-3.8,0-7-2.2-7-6a7.081,7.081,0,0,1,7-7c1.649,0,2.767-.074,4,1l3-3a10.378,10.378,0,0,0-7-3A12.387,12.387,0,0,0,0,108c0,6.341,5.659,11,12,11a10.677,10.677,0,0,0,11-11v-3Z" transform="translate(0 -96)" fill="inherit"/>
      </g>
    </g>
  </g>
</svg>
