<svg xmlns="http://www.w3.org/2000/svg" width="28" height="23" viewBox="0 0 28 23">
  <path id="Path_288" data-name="Path 288" d="M28,51a10.042,10.042,0,0,1-3,1,8.5,8.5,0,0,0,3-4,14.867,14.867,0,0,1-4,2,5.454,5.454,0,0,0-4-2,6.145,6.145,0,0,0-6,6,3.5,3.5,0,0,0,0,1A16.438,16.438,0,0,1,2,49a6.287,6.287,0,0,0-1,3,6.548,6.548,0,0,0,3,5,7.7,7.7,0,0,1-3-1H1a6.486,6.486,0,0,0,5,6,10.342,10.342,0,0,1-2,0,4.3,4.3,0,0,1-1,0c.752,2.3,3.463,3.945,6,4-1.974,1.545-5.286,2-8,2a5.719,5.719,0,0,1-1,0,17.013,17.013,0,0,0,9,3c10.679,0,16-9.332,16-17,0-.257.012.246,0,0A11.879,11.879,0,0,0,28,51Z" transform="translate(0 -48)" fill="inherit"/>
</svg>
