<svg xmlns="http://www.w3.org/2000/svg" width="147" height="147" viewBox="0 0 147 147">
  <path id="Path_183" data-name="Path 183" d="M147,45.048a7.122,7.122,0,0,0-7.113-7.113,7.038,7.038,0,0,0-2.319.42l-10.624-13.28a7.039,7.039,0,0,0,1.088-3.737,7.1,7.1,0,0,0-12.2-4.96L97.15,7.753c.019-.213.064-.42.064-.64a7.1,7.1,0,0,0-13.79-2.371H56.471a7.1,7.1,0,0,0-13.79,2.371,6.953,6.953,0,0,0,.088.863l-11.76,5.88A7.088,7.088,0,0,0,20.06,22.7L9.436,35.984a7.038,7.038,0,0,0-2.319-.42A7.1,7.1,0,0,0,4.746,49.353v15.1a7.093,7.093,0,1,0,8.512,10.2L26.2,77.005a7.1,7.1,0,0,0,7,5.977c.095,0,.185-.024.28-.028L38,94.266A7.091,7.091,0,1,0,48.459,103.7l20.348,5.814a7.085,7.085,0,0,0,4.7,6.228v17.471a7.113,7.113,0,1,0,4.742,0V115.739a7.054,7.054,0,0,0,1.989-12.255l2.831-8.5,21.275,7.091a7.1,7.1,0,0,0,4.728,6.544v24.584a7.113,7.113,0,1,0,4.742,0V108.627a7,7,0,0,0,4.28-9.13l18.192-15.16a7.032,7.032,0,0,0,3.609,1.017,7.1,7.1,0,0,0,2.371-13.789V51.722A7.1,7.1,0,0,0,147,45.048Zm-26.081-26.08a2.371,2.371,0,1,1-2.371,2.371A2.373,2.373,0,0,1,120.923,18.967Zm-3.372,8.595a6.742,6.742,0,0,0,5.688.469l10.624,13.282a7.051,7.051,0,0,0-1.086,3.734,6.961,6.961,0,0,0,.114,1.117l-16.8,9.161L103.864,45.133a6.909,6.909,0,0,0-.083-5.176ZM87.73,66.386a7,7,0,0,0-3.047.714L74.637,57.054l17.735-9.2a6.981,6.981,0,0,0,8.45.915l10.8,9L92.453,68.221A7.05,7.05,0,0,0,87.73,66.386ZM90.1,73.5a2.371,2.371,0,1,1-2.371-2.371A2.373,2.373,0,0,1,90.1,73.5ZM54.254,47.388l3.981,12.827-20.2,10.472A7.107,7.107,0,0,0,35,69.018l-3.286-25.2,16.246-.813A7.109,7.109,0,0,0,54.254,47.388Zm-2.089-7.082a2.371,2.371,0,1,1,2.371,2.371A2.373,2.373,0,0,1,52.165,40.306ZM59.66,64.819,65.673,84.2,40.3,75.737a6.911,6.911,0,0,0-.085-.835Zm-.017-16.051L66.7,55.826,62.51,58Zm1.295-5.415a6.956,6.956,0,0,0,.114-5.885L72.309,26.96,90.456,40.569a7,7,0,0,0-.356,2.108,7.226,7.226,0,0,0,.1.967L71.119,53.536Zm33.9-.676a2.371,2.371,0,1,1,2.371,2.371A2.373,2.373,0,0,1,94.843,42.677Zm20.694,18.356,16.988,14.157L95.715,71.844ZM90.1,4.742A2.371,2.371,0,1,1,87.73,7.113,2.373,2.373,0,0,1,90.1,4.742ZM86.843,13.4a6.984,6.984,0,0,0,8.343-1.328L113.874,20.7c-.019.216-.064.422-.064.643a7.077,7.077,0,0,0,.545,2.722L100.585,36.453a6.965,6.965,0,0,0-7.31.308L75.83,23.676ZM83.424,9.484c.057.154.1.315.161.465L71.975,20.784,56.907,9.484ZM49.794,4.742a2.371,2.371,0,1,1-2.371,2.371A2.373,2.373,0,0,1,49.794,4.742ZM33.2,18.967a6.87,6.87,0,0,0-.088-.861l11.76-5.88a7.07,7.07,0,0,0,8.863.8L68.454,24.07l-10.66,9.948a7.025,7.025,0,0,0-3.258-.825,7.1,7.1,0,0,0-6.781,5.076L31.1,39.1,29.3,25.276A7.093,7.093,0,0,0,33.2,18.967ZM26.085,16.6a2.371,2.371,0,1,1-2.371,2.371A2.373,2.373,0,0,1,26.085,16.6Zm-2.319,9.064a7.194,7.194,0,0,0,.832.258l1.75,13.422-12.659.633a7.062,7.062,0,0,0-.548-1.034ZM7.117,40.306a2.371,2.371,0,1,1-2.371,2.371A2.373,2.373,0,0,1,7.117,40.306Zm0,33.193a2.371,2.371,0,1,1,2.371-2.371A2.373,2.373,0,0,1,7.117,73.5Zm19.94-1.155L14.116,69.992a7.1,7.1,0,0,0-4.628-5.541v-15.1a7.1,7.1,0,0,0,4.41-4.64l13.069-.654L30.272,69.4A7.12,7.12,0,0,0,27.057,72.344Zm6.141,5.9a2.371,2.371,0,1,1,2.371-2.371A2.373,2.373,0,0,1,33.2,78.241Zm9.484,23.709a2.371,2.371,0,1,1,2.371-2.371A2.373,2.373,0,0,1,42.681,101.95ZM70.1,104.944,49.752,99.131a7.1,7.1,0,0,0-7.07-6.665c-.095,0-.185.024-.28.028L37.878,81.183a7.309,7.309,0,0,0,.9-.955l28.627,9.543,4.227,13.619A7.229,7.229,0,0,0,70.1,104.944Zm5.776,37.311a2.371,2.371,0,1,1,2.371-2.371A2.373,2.373,0,0,1,75.875,142.256Zm0-30.822a2.371,2.371,0,1,1,2.371-2.371A2.373,2.373,0,0,1,75.875,111.434Zm.081-10.11-3.014-9.707,5.624,1.875Zm4.111-12.331-8.853-2.952L63.94,62.6l6.283-3.258L81.331,70.452a7,7,0,0,0-.714,3.047,7.074,7.074,0,0,0,2.755,5.579Zm31.373,53.263a2.371,2.371,0,1,1,2.371-2.371A2.373,2.373,0,0,1,111.439,142.256Zm0-37.935a2.371,2.371,0,1,1,2.371-2.371A2.373,2.373,0,0,1,111.439,104.321Zm3.609-8.469a6.989,6.989,0,0,0-9.187,1.74l-21.3-7.1,3.3-9.9a7.1,7.1,0,0,0,6.309-4.133L133.022,80a6.989,6.989,0,0,0,.218.7Zm4.967-37.264,15.153-8.265a7.039,7.039,0,0,0,2.354,1.4V71.564a7.135,7.135,0,0,0-1.24.581Zm19.876,22.024a2.371,2.371,0,1,1,2.371-2.371A2.373,2.373,0,0,1,139.891,80.612Zm0-33.193a2.371,2.371,0,1,1,2.371-2.371A2.373,2.373,0,0,1,139.891,47.419Z" transform="translate(-0.004)" fill="#32a4fc"/>
</svg>
