<svg id="Component_5_1" data-name="Component 5 – 1" xmlns="http://www.w3.org/2000/svg" width="147" height="147" viewBox="0 0 147 147">
  <path id="Path_207" data-name="Path 207" d="M70.962,112.938c.884,0,1-.116,1-1v-2c0-.106.022.1,0,0l-7-38h4a2.368,2.368,0,0,0,2-2v-6a2.368,2.368,0,0,0-2-2h-29c-.884,0-1,1.116-1,2v6c0,.884.116,2,1,2h5l-8,38c-.022.1,0-.106,0,0v2c0,.884,1.116,1,2,1s1-.116,1-1v-2l8-38h5v40c0,.884,1.116,1,2,1s1-.116,1-1v-40a2,2,0,1,0,0-4h-14v-3h25v3h-4a4.132,4.132,0,0,0-2,1c-.3.37-.094.529,0,1l8,40v2C68.962,112.822,70.078,112.938,70.962,112.938Z" transform="translate(19.038 34.062)" fill="#32a4fc"/>
  <path id="Path_208" data-name="Path 208" d="M4,84.737h6v62.8c0,.881,1.116,1,2,1h6c.884,0,2-.116,2-1v-62.8H132v62.8c0,.881.116,1,1,1h7c.884,0,1-.116,1-1v-62.8h7c.884,0,1-.116,1-1V76.762c0-.881-.116-1-1-1h-2V73.772a5.144,5.144,0,0,0-5-4.984h-3a5.144,5.144,0,0,0-5,4.984v1.994h-8L121,65.8h20a7.993,7.993,0,0,0,8-7.975V19.944a7.993,7.993,0,0,0-8-7.975H80a7.993,7.993,0,0,0-8,7.975V47.855a2,2,0,0,0,4,0V19.944c0-2.64,1.352-4.984,4-4.984h61a5.144,5.144,0,0,1,5,4.984V52.839h-6v-29.9a2.364,2.364,0,0,0-2-1.994H84a2.364,2.364,0,0,0-2,1.994v29.9H74a2.364,2.364,0,0,0-2,1.994v2.99A7.993,7.993,0,0,0,80,65.8h21l-2,2.99H76a2.364,2.364,0,0,0-2,1.994v4.984H68V67.791h1A2.364,2.364,0,0,0,71,65.8,2.364,2.364,0,0,0,69,63.8H61v-2.99c3.532,0,7-2.46,7-5.981a2.364,2.364,0,0,0-2-1.994,2.364,2.364,0,0,0-2,1.994,2.866,2.866,0,0,1-3,2.99V44.864c0-.881-.116-1-1-1s-2,.116-2,1v6.978c-1.766,0-3-2.227-3-3.987,0-.881-1.116-1-2-1s-1,.116-1,1c0,3.521,2.468,6.978,6,6.978V63.8H52A2.364,2.364,0,0,0,50,65.8a2.364,2.364,0,0,0,2,1.994h1v7.975H47L44,57.823c-.128-.768-1.217-1.994-2-1.994H29c-.471,0-.7.638-1,1s-.077.534,0,1l1,8.971-4,8.971H23V70.782a2.364,2.364,0,0,0-2-1.994H16V31.906a6.362,6.362,0,0,0,5-5.981,5.566,5.566,0,0,0-1-2.99L37,5.988l2,1L37,8.979a2.616,2.616,0,0,0,0,2.99l3,1.994c-.157,2.728.056,6.035,2,7.975.312.311,1.59,0,2,0s.688.311,1,0L56,9.976c.3-.3,0-.574,0-1s.3-.7,0-1a9.044,9.044,0,0,0-7-2.99L46,2a1.3,1.3,0,0,0-2,0l-3,2.99L38,2a1.3,1.3,0,0,0-2,0L18,20.941a5.607,5.607,0,0,0-3-1c-3.532,0-7,2.46-7,5.981a6.362,6.362,0,0,0,5,5.981V68.788H8c-.884,0-1,1.113-1,1.994v4.984H4c-.884,0-2,.116-2,1V83.74C2,84.621,3.116,84.737,4,84.737ZM45,5.988l2,1.994c.333.539.369,1.093,1,1,1.487-.212,2.764-.723,4,0L44,17.95a5.967,5.967,0,0,1-1-3.987,2.745,2.745,0,0,0-1-1.994L40,9.976ZM16,145.543H13V84.737h3Zm122,0h-3V84.737h3Zm-2-71.771a2.368,2.368,0,0,1,2-1.994h3a2.368,2.368,0,0,1,2,1.994v1.994h-7ZM85,23.931h51V33.9H85ZM85,36.89h51V52.839H85ZM80,62.807c-2.648,0-4-2.344-4-4.984V55.829h70v1.994a5.144,5.144,0,0,1-5,4.984H119c-.525,0-.7.567-1,1s-1.183.507-1,1l4,10.965h-7V70.782a2.364,2.364,0,0,0-2-1.994h-9l1-2.99h8a2.364,2.364,0,0,0,2-1.994c0-.881-1.116-1-2-1Zm-3,8.971h34v3.987H77ZM41,59.817l2,15.949H34L31,59.817ZM30,72.775l1,2.99H29ZM12,25.925a2.866,2.866,0,0,1,3-2.99,2.99,2.99,0,1,1,0,5.981A2.866,2.866,0,0,1,12,25.925ZM10,71.778H20v3.987H10ZM5,78.756H60c.884,0,1-1.113,1-1.994s-.116-1-1-1H56V67.791h8v8.971a2.364,2.364,0,0,0,2,1.994h80v2.99H5Z" transform="translate(-2 -1.533)" fill="#32a4fc"/>
  <circle id="Ellipse_36" data-name="Ellipse 36" cx="2" cy="2" r="2" transform="translate(86 25.47)" fill="#32a4fc"/>
  <ellipse id="Ellipse_37" data-name="Ellipse 37" cx="1.5" cy="2" rx="1.5" ry="2" transform="translate(93 25.47)" fill="#32a4fc"/>
  <ellipse id="Ellipse_38" data-name="Ellipse 38" cx="1.5" cy="2" rx="1.5" ry="2" transform="translate(99 25.47)" fill="#32a4fc"/>
  <path id="Path_209" data-name="Path 209" d="M90.525,18.386h-18c-.884,0-2,.116-2,1a2.368,2.368,0,0,0,2,2h18c.884,0,1-1.116,1-2S91.409,18.386,90.525,18.386Z" transform="translate(39.475 8.084)" fill="#32a4fc"/>
</svg>
