<svg id="Component_6_1" data-name="Component 6 – 1" xmlns="http://www.w3.org/2000/svg" width="146.487" height="147" viewBox="0 0 146.487 147">
  <path id="Path_201" data-name="Path 201" d="M247.927,18.679a2.892,2.892,0,0,0,2.891-2.891V2.891a2.891,2.891,0,1,0-5.783,0v12.9A2.892,2.892,0,0,0,247.927,18.679Z" transform="translate(-174.94 0)" fill="#32a4fc"/>
  <path id="Path_202" data-name="Path 202" d="M144.56,157.9l-5.108-5.094a9.683,9.683,0,0,0-11.457-1.635l-9.626-9.614.469-.468a10.036,10.036,0,0,0,0-14.17A9.926,9.926,0,0,0,113.8,124.2a10.1,10.1,0,0,0,.4-2.813,10.013,10.013,0,0,0-7.965-9.807,10.1,10.1,0,0,0,.4-2.813,10,10,0,0,0-7.964-9.8A10.006,10.006,0,0,0,87.978,86.192L68.9,82.582c-2.909-.552-6.542-.917-8.835,1.175a5.223,5.223,0,0,0-.438.453,10.055,10.055,0,0,0-10.55,2.32,9.948,9.948,0,0,0-2.929,7.088,10.11,10.11,0,0,0,.4,2.813,10.015,10.015,0,0,0-7.963,9.8,10.081,10.081,0,0,0,.4,2.821,10.026,10.026,0,0,0-6.215,15.472A10.02,10.02,0,0,0,28.922,141.1l.467.465-9.627,9.609a9.668,9.668,0,0,0-10.938,1.9l-5.111,5.1a9.659,9.659,0,0,0,0,13.64l6.379,6.371a2.891,2.891,0,1,0,4.087-4.091L7.8,167.713a3.877,3.877,0,0,1,0-5.456l5.111-5.1a3.871,3.871,0,0,1,4.716-.578,2.917,2.917,0,0,0,.364.445,2.878,2.878,0,0,0,.831.578l29.312,29.269a2.848,2.848,0,0,0,1.394,1.409,3.87,3.87,0,0,1-.16,5.28l-5.106,5.1a3.884,3.884,0,0,1-5.467,0l-6.379-6.379a2.891,2.891,0,1,0-4.089,4.089l6.383,6.384a9.681,9.681,0,0,0,13.635,0l5.109-5.1a9.668,9.668,0,0,0,1.354-11.941l10.834-10.821.035-.035c1.241-1.283,4.7-1.043,8.036-.811a41.586,41.586,0,0,0,7.606.051l11.865,11.85a9.663,9.663,0,0,0,1.64,11.447l5.11,5.1a9.668,9.668,0,0,0,13.638,0l30.991-30.953a9.658,9.658,0,0,0,0-13.641ZM67.827,88.264,80.37,90.638l-7.508,7.5a18.228,18.228,0,0,1-4.5-3.27c-2.39-2.287-4.1-4.927-4.256-6.573a.008.008,0,0,1,0,0h0a2.527,2.527,0,0,1-.013-.285,9.8,9.8,0,0,1,3.733.252ZM53.168,90.621a4.265,4.265,0,0,1,5.4-.511c.938,3.933,4.293,7.5,5.8,8.941,1.119,1.07,4.708,4.279,8.33,5.161a4.244,4.244,0,0,1-6.487,5.42h0L53.167,96.614a4.258,4.258,0,0,1,0-5.993Zm-7.556,12.618a4.265,4.265,0,0,1,6.008,0l10.5,10.479a4.25,4.25,0,0,1-6.015,6h0l-7.966-7.964-.038-.036-2.492-2.491a4.243,4.243,0,0,1,0-6Zm-7.57,12.615a4.278,4.278,0,0,1,5.989-.02l7.99,7.987a4.244,4.244,0,0,1-6.014,5.99l-2.9-2.893,0,0-5.067-5.061a4.254,4.254,0,0,1,0-6Zm-5.036,15.155a4.274,4.274,0,0,1,6.017,0l2.9,2.9a4.244,4.244,0,0,1-6.016,5.988l-.363-.362-.013-.015-.017-.015-2.506-2.5a4.246,4.246,0,0,1,0-6Zm58.925,32.862a2.891,2.891,0,0,0-4.089,0l-2.573,2.569c-2.444,2.444-6.874,2.137-11.157,1.84-4.651-.323-9.461-.657-12.574,2.539l-10.65,10.637L24.255,154.859l9.425-9.408A10.028,10.028,0,0,0,48.943,136.9c0-.025,0-.05,0-.075l.075,0A10,10,0,0,0,59.04,126.814c0-.025,0-.05,0-.075l.076,0a9.991,9.991,0,0,0,10.024-10.088l.078,0a10.03,10.03,0,0,0,8.558-15.245l8.261-8.258A4.242,4.242,0,0,1,88.206,92c.086-.009.171-.023.255-.04a4.237,4.237,0,0,1,3.6,7.192l-2.516,2.506-.026.024-2.9,2.893a2.891,2.891,0,0,0,4.086,4.092l2.526-2.523,0,0,.382-.38a4.259,4.259,0,0,1,6,.015,4.243,4.243,0,0,1-.006,5.993l-2.53,2.535h0l-2.9,2.886a2.891,2.891,0,0,0,4.081,4.1l2.911-2.9a4.244,4.244,0,0,1,6.006,6l-5.045,5.047a2.891,2.891,0,1,0,4.09,4.088l2.472-2.473c.014-.013.029-.025.043-.039a4.244,4.244,0,0,1,6.007,6l-2.514,2.511,0,0,0,0-3.99,3.985a2.892,2.892,0,0,0,4.087,4.092l1.951-1.949,9.353,9.342L97,181.586l-9.542-9.53a11.37,11.37,0,0,0,1.9-1.528l2.571-2.568A2.89,2.89,0,0,0,91.931,163.871Zm48.544,3.581-30.991,30.953a3.886,3.886,0,0,1-5.465,0l-5.11-5.1a3.866,3.866,0,0,1,0-5.449L129.9,156.9a3.886,3.886,0,0,1,5.467,0l5.108,5.094a3.876,3.876,0,0,1,0,5.457Z" transform="translate(-0.894 -58.566)" fill="#32a4fc"/>
  <path id="Path_203" data-name="Path 203" d="M93.109,18.2a2.891,2.891,0,0,0,4.085-4.093L86.657,3.59a2.891,2.891,0,1,0-4.085,4.093Z" transform="translate(-58.516 -1.957)" fill="#32a4fc"/>
  <path id="Path_204" data-name="Path 204" d="M374.543,19.044a2.883,2.883,0,0,0,2.043-.846L387.114,7.682a2.891,2.891,0,1,0-4.087-4.091L372.5,14.107a2.891,2.891,0,0,0,2.043,4.937Z" transform="translate(-265.203 -1.957)" fill="#32a4fc"/>
  <path id="Path_205" data-name="Path 205" d="M60.759,431.058a2.891,2.891,0,0,0,.035,4.089l.008.008a2.891,2.891,0,1,0-.043-4.1Z" transform="translate(-42.98 -306.68)" fill="#32a4fc"/>
  <path id="Path_206" data-name="Path 206" d="M335.408,337.9a2.892,2.892,0,1,0-1.3-5.475l-.016.008a2.89,2.89,0,0,0,1.315,5.467Z" transform="translate(-237.299 -236.763)" fill="#32a4fc"/>
</svg>
